<?xml version="1.0" encoding="UTF-8" standalone="no"?>
<!DOCTYPE svg PUBLIC "-//W3C//DTD SVG 1.1//EN"
 "http://www.w3.org/Graphics/SVG/1.1/DTD/svg11.dtd">
<!-- Generated by graphviz version 2.43.0 (0)
 -->
<!-- Title: Etymology Tree Pages: 1 -->
<svg width="185pt" height="302pt"
 viewBox="0.00 0.00 184.78 301.91" xmlns="http://www.w3.org/2000/svg" xmlns:xlink="http://www.w3.org/1999/xlink">
<g id="graph0" class="graph" transform="scale(1 1) rotate(0) translate(4 297.91)">
<title>Etymology Tree</title>
<polygon fill="white" stroke="transparent" points="-4,4 -4,-297.91 180.78,-297.91 180.78,4 -4,4"/>
<!-- afară_ro -->
<g id="node1" class="node">
<title>afară_ro</title>
<polygon fill="none" stroke="red" stroke-width="2" points="122.39,-36 54.39,-36 54.39,0 122.39,0 122.39,-36"/>
<text text-anchor="start" x="62.39" y="-23" font-family="Times,serif" font-size="10.00" fill="red">Romanian</text>
<text text-anchor="start" x="67.89" y="-9.8" font-family="Times,serif" font-weight="bold" font-size="14.00" fill="red">afară</text>
</g>
<!-- ad_la -->
<g id="node2" class="node">
<title>ad_la</title>
<ellipse fill="none" stroke="black" cx="88.39" cy="-94.63" rx="30.31" ry="22.76"/>
<text text-anchor="start" x="74.89" y="-99.63" font-family="Times,serif" font-size="10.00">Latin</text>
<text text-anchor="start" x="78.89" y="-86.43" font-family="Times,serif" font-weight="bold" font-size="14.00">ad</text>
</g>
<!-- ad_la&#45;&gt;afară_ro -->
<g id="edge1" class="edge">
<title>ad_la&#45;&gt;afară_ro</title>
<path fill="none" stroke="green" d="M88.39,-71.64C88.39,-63.66 88.39,-54.55 88.39,-46.17"/>
<polygon fill="green" stroke="green" points="91.89,-46.1 88.39,-36.1 84.89,-46.1 91.89,-46.1"/>
</g>
<!-- *ad_itc&#45;pro -->
<g id="node3" class="node">
<title>*ad_itc&#45;pro</title>
<ellipse fill="none" stroke="black" cx="88.39" cy="-175.88" rx="50.82" ry="22.76"/>
<text text-anchor="start" x="60.39" y="-180.88" font-family="Times,serif" font-size="10.00">Proto&#45;Italic</text>
<text text-anchor="start" x="74.89" y="-167.68" font-family="Times,serif" font-weight="bold" font-size="14.00">*ad</text>
</g>
<!-- *ad_itc&#45;pro&#45;&gt;ad_la -->
<g id="edge2" class="edge">
<title>*ad_itc&#45;pro&#45;&gt;ad_la</title>
<path fill="none" stroke="green" d="M88.39,-153.23C88.39,-145.28 88.39,-136.1 88.39,-127.44"/>
<polygon fill="green" stroke="green" points="91.89,-127.26 88.39,-117.26 84.89,-127.26 91.89,-127.26"/>
</g>
<!-- *h₂éd_ine&#45;pro -->
<g id="node4" class="node">
<title>*h₂éd_ine&#45;pro</title>
<ellipse fill="none" stroke="black" cx="88.39" cy="-264.21" rx="88.28" ry="29.9"/>
<text text-anchor="start" x="33.89" y="-274.21" font-family="Times,serif" font-size="10.00">Proto&#45;Indo&#45;European</text>
<text text-anchor="start" x="66.89" y="-261.01" font-family="Times,serif" font-weight="bold" font-size="14.00">*h₂éd</text>
<text text-anchor="start" x="68.89" y="-250.21" font-family="Times,serif" font-style="italic" font-size="10.00">near, at</text>
</g>
<!-- *h₂éd_ine&#45;pro&#45;&gt;*ad_itc&#45;pro -->
<g id="edge3" class="edge">
<title>*h₂éd_ine&#45;pro&#45;&gt;*ad_itc&#45;pro</title>
<path fill="none" stroke="green" d="M88.39,-234.46C88.39,-226.26 88.39,-217.26 88.39,-208.87"/>
<polygon fill="green" stroke="green" points="91.89,-208.67 88.39,-198.67 84.89,-208.67 91.89,-208.67"/>
</g>
</g>
</svg>
