<?xml version="1.0" encoding="UTF-8" standalone="no"?>
<!DOCTYPE svg PUBLIC "-//W3C//DTD SVG 1.1//EN"
 "http://www.w3.org/Graphics/SVG/1.1/DTD/svg11.dtd">
<!-- Generated by graphviz version 2.43.0 (0)
 -->
<!-- Title: Etymology Tree Pages: 1 -->
<svg width="527pt" height="383pt"
 viewBox="0.00 0.00 527.44 383.16" xmlns="http://www.w3.org/2000/svg" xmlns:xlink="http://www.w3.org/1999/xlink">
<g id="graph0" class="graph" transform="scale(1 1) rotate(0) translate(4 379.16)">
<title>Etymology Tree</title>
<polygon fill="white" stroke="transparent" points="-4,4 -4,-379.16 523.44,-379.16 523.44,4 -4,4"/>
<!-- Morgen_de -->
<g id="node1" class="node">
<title>Morgen_de</title>
<polygon fill="none" stroke="red" stroke-width="2" points="259.53,-36 181.53,-36 181.53,0 259.53,0 259.53,-36"/>
<text text-anchor="start" x="199.53" y="-23" font-family="Times,serif" font-size="10.00" fill="red">German</text>
<text text-anchor="start" x="189.53" y="-9.8" font-family="Times,serif" font-weight="bold" font-size="14.00" fill="red">Morgen</text>
</g>
<!-- morgen_gmh -->
<g id="node2" class="node">
<title>morgen_gmh</title>
<ellipse fill="none" stroke="grey" stroke-dasharray="5,2" cx="129.53" cy="-94.63" rx="88.28" ry="22.76"/>
<text text-anchor="start" x="75.03" y="-99.63" font-family="Times,serif" font-size="10.00" fill="grey">Middle High German</text>
<text text-anchor="start" x="99.03" y="-86.43" font-family="Times,serif" font-weight="bold" font-size="14.00" fill="grey">morgen</text>
</g>
<!-- morgen_gmh&#45;&gt;Morgen_de -->
<g id="edge1" class="edge">
<title>morgen_gmh&#45;&gt;Morgen_de</title>
<path fill="none" stroke="green" d="M154.88,-72.84C166.33,-63.45 179.92,-52.31 191.75,-42.6"/>
<polygon fill="green" stroke="green" points="194.1,-45.2 199.61,-36.15 189.66,-39.79 194.1,-45.2"/>
</g>
<!-- morgan_goh -->
<g id="node3" class="node">
<title>morgan_goh</title>
<ellipse fill="none" stroke="black" cx="311.53" cy="-94.63" rx="75.82" ry="22.76"/>
<text text-anchor="start" x="266.03" y="-99.63" font-family="Times,serif" font-size="10.00">Old High German</text>
<text text-anchor="start" x="281.03" y="-86.43" font-family="Times,serif" font-weight="bold" font-size="14.00">morgan</text>
</g>
<!-- morgan_goh&#45;&gt;Morgen_de -->
<g id="edge7" class="edge">
<title>morgan_goh&#45;&gt;Morgen_de</title>
<path fill="none" stroke="green" d="M286.66,-73.24C275.12,-63.77 261.33,-52.46 249.33,-42.62"/>
<polygon fill="green" stroke="green" points="251.32,-39.72 241.36,-36.09 246.88,-45.13 251.32,-39.72"/>
</g>
<!-- *morgin_gmw&#45;pro -->
<g id="node4" class="node">
<title>*morgin_gmw&#45;pro</title>
<ellipse fill="none" stroke="black" cx="311.53" cy="-175.88" rx="87.86" ry="22.76"/>
<text text-anchor="start" x="257.53" y="-180.88" font-family="Times,serif" font-size="10.00">Proto&#45;West Germanic</text>
<text text-anchor="start" x="279.03" y="-167.68" font-family="Times,serif" font-weight="bold" font-size="14.00">*morgin</text>
</g>
<!-- *morgin_gmw&#45;pro&#45;&gt;morgan_goh -->
<g id="edge6" class="edge">
<title>*morgin_gmw&#45;pro&#45;&gt;morgan_goh</title>
<path fill="none" stroke="green" d="M311.53,-153.23C311.53,-145.28 311.53,-136.1 311.53,-127.44"/>
<polygon fill="green" stroke="green" points="315.03,-127.26 311.53,-117.26 308.03,-127.26 315.03,-127.26"/>
</g>
<!-- *murginaz_gem&#45;pro -->
<g id="node5" class="node">
<title>*murginaz_gem&#45;pro</title>
<ellipse fill="none" stroke="black" cx="311.53" cy="-257.14" rx="70.92" ry="22.76"/>
<text text-anchor="start" x="271.03" y="-262.14" font-family="Times,serif" font-size="10.00">Proto&#45;Germanic</text>
<text text-anchor="start" x="269.53" y="-248.94" font-family="Times,serif" font-weight="bold" font-size="14.00">*murginaz</text>
</g>
<!-- *murginaz_gem&#45;pro&#45;&gt;*morgin_gmw&#45;pro -->
<g id="edge5" class="edge">
<title>*murginaz_gem&#45;pro&#45;&gt;*morgin_gmw&#45;pro</title>
<path fill="none" stroke="green" d="M311.53,-234.48C311.53,-226.53 311.53,-217.36 311.53,-208.7"/>
<polygon fill="green" stroke="green" points="315.03,-208.51 311.53,-198.51 308.03,-208.51 315.03,-208.51"/>
</g>
<!-- *merkʷ&#45;_ine&#45;pro -->
<g id="node6" class="node">
<title>*merkʷ&#45;_ine&#45;pro</title>
<ellipse fill="none" stroke="grey" stroke-dasharray="5,2" cx="102.53" cy="-345.46" rx="102.56" ry="29.9"/>
<text text-anchor="start" x="48.03" y="-355.46" font-family="Times,serif" font-size="10.00" fill="grey">Proto&#45;Indo&#45;European</text>
<text text-anchor="start" x="70.53" y="-342.26" font-family="Times,serif" font-weight="bold" font-size="14.00" fill="grey">*merkʷ&#45;</text>
<text text-anchor="start" x="38.03" y="-331.46" font-family="Times,serif" font-style="italic" font-size="10.00" fill="grey">to flicker, twinkle, darken</text>
</g>
<!-- *merkʷ&#45;_ine&#45;pro&#45;&gt;*murginaz_gem&#45;pro -->
<g id="edge2" class="edge">
<title>*merkʷ&#45;_ine&#45;pro&#45;&gt;*murginaz_gem&#45;pro</title>
<path fill="none" stroke="black" d="M159.92,-320.76C191.21,-307.83 229.64,-291.96 259.97,-279.43"/>
<polygon fill="black" stroke="black" points="261.61,-282.54 269.52,-275.49 258.94,-276.07 261.61,-282.54"/>
</g>
<!-- *mer&#45;_ine&#45;pro -->
<g id="node7" class="node">
<title>*mer&#45;_ine&#45;pro</title>
<ellipse fill="none" stroke="black" cx="311.53" cy="-345.46" rx="88.28" ry="29.9"/>
<text text-anchor="start" x="257.03" y="-355.46" font-family="Times,serif" font-size="10.00">Proto&#45;Indo&#45;European</text>
<text text-anchor="start" x="288.53" y="-342.26" font-family="Times,serif" font-weight="bold" font-size="14.00">*mer&#45;</text>
<text text-anchor="start" x="268.03" y="-331.46" font-family="Times,serif" font-style="italic" font-size="10.00">to flicker, twinkle</text>
</g>
<!-- *mer&#45;_ine&#45;pro&#45;&gt;*murginaz_gem&#45;pro -->
<g id="edge3" class="edge">
<title>*mer&#45;_ine&#45;pro&#45;&gt;*murginaz_gem&#45;pro</title>
<path fill="none" stroke="black" d="M311.53,-315.72C311.53,-307.51 311.53,-298.52 311.53,-290.13"/>
<polygon fill="black" stroke="black" points="315.03,-289.93 311.53,-279.93 308.03,-289.93 315.03,-289.93"/>
</g>
<!-- mérkti_lt -->
<g id="node8" class="node">
<title>mérkti_lt</title>
<ellipse fill="none" stroke="grey" stroke-dasharray="5,2" cx="468.53" cy="-345.46" rx="50.82" ry="22.76"/>
<text text-anchor="start" x="440.53" y="-350.46" font-family="Times,serif" font-size="10.00" fill="grey">Lithuanian</text>
<text text-anchor="start" x="441.53" y="-337.26" font-family="Times,serif" font-weight="bold" font-size="14.00" fill="grey">mérkti</text>
</g>
<!-- mérkti_lt&#45;&gt;*murginaz_gem&#45;pro -->
<g id="edge4" class="edge">
<title>mérkti_lt&#45;&gt;*murginaz_gem&#45;pro</title>
<path fill="none" stroke="orange" stroke-dasharray="5,2" d="M437.51,-327.41C411.06,-312.86 373.09,-291.98 345.75,-276.96"/>
</g>
</g>
</svg>
